<svg width="368" height="367" xmlns="http://www.w3.org/2000/svg" xmlns:xlink="http://www.w3.org/1999/xlink" overflow="hidden"><defs><clipPath id="clip0"><rect x="3972" y="53" width="368" height="367"/></clipPath></defs><g clip-path="url(#clip0)" transform="translate(-3972 -53)"><path d="M3972 230.212C3972 228.687 3972.38 227.163 3972.38 225.639 3973.14 216.873 3974.29 208.108 3975.81 199.343 3979.25 184.099 3984.2 169.617 3991.07 155.516 4005.94 125.409 4027.68 101.4 4055.9 82.7258 4073.06 71.2928 4092.12 63.2897 4112.34 58.3353 4123.78 55.2865 4135.6 53.7621 4147.04 53.381 4147.8 53.381 4148.56 52.9999 4149.33 52.9999 4153.52 52.9999 4157.72 52.9999 4161.91 52.9999 4162.67 52.9999 4163.05 53.381 4163.82 53.381 4197.76 54.9054 4228.65 64.8141 4256.48 83.488 4292.71 107.497 4317.5 140.272 4330.85 181.812 4335.04 195.151 4337.71 209.251 4338.86 223.352 4340 244.694 4338.09 265.654 4332.37 286.234 4325.51 309.862 4314.07 331.585 4298.81 351.021 4284.32 368.933 4267.16 383.414 4247.33 394.847 4230.93 404.756 4213.39 411.235 4194.71 415.427 4184.41 417.713 4174.11 418.857 4163.44 419.619 4162.67 419.619 4161.91 419.619 4161.53 420 4157.72 420 4153.52 420 4149.71 420 4147.42 419.619 4145.51 419.238 4143.22 419.238 4127.97 418.095 4113.1 415.427 4098.61 410.473 4050.56 394.085 4014.71 363.216 3991.45 317.865 3983.44 302.24 3978.1 285.471 3975.05 267.941 3973.53 261.081 3972.76 254.221 3972.38 247.361 3972.38 245.837 3972 243.931 3972 242.407 3972 238.215 3972 234.023 3972 230.212ZM4155.43 413.521C4253.43 413.521 4332.75 333.49 4332.75 236.309 4333.14 139.891 4254.2 59.4786 4155.81 59.4786 4058.18 59.0975 3978.48 138.748 3978.48 235.928 3978.1 333.49 4057.8 413.14 4155.43 413.521Z" fill="#C00000" fill-rule="evenodd"/><path d="M4291 236.691C4291 311.397 4230.02 372 4155.31 372 4080.6 372 4020.38 311.015 4020 237.072 4020 162.747 4080.22 101.762 4154.93 101.381 4230.02 101 4291 161.603 4291 236.691ZM4155.31 367.807C4227.73 368.188 4286.81 309.11 4286.81 236.691 4286.81 164.271 4227.73 105.574 4155.31 105.574 4083.27 105.574 4024.19 164.271 4024.19 236.691 4024.19 308.729 4083.27 367.807 4155.31 367.807Z" fill="#C00000" fill-rule="evenodd"/><path d="M4281.05 143.702C4279.15 145.617 4276.87 147.149 4274.97 149.064 4273.84 149.83 4273.84 150.979 4274.22 151.745 4274.59 152.511 4274.59 152.894 4274.59 153.277 4273.46 152.894 4268.14 146 4267 143.319 4267.76 143.702 4267.76 143.702 4268.14 144.085 4269.66 144.851 4270.42 144.851 4271.56 144.085 4276.11 140.255 4280.67 136.425 4285.23 132.596 4286.75 131.447 4286.75 130.681 4285.99 128.766 4285.99 128.383 4285.99 128.383 4285.99 128 4286.37 128.383 4286.75 128.383 4286.75 128.766 4289.03 131.83 4291.3 134.894 4293.58 137.957 4294.72 139.489 4295.48 141.404 4296.24 143.319 4297 145.234 4297 147.149 4295.48 148.681 4293.96 150.979 4291.3 151.745 4288.65 150.596 4287.89 150.213 4287.13 149.83 4285.99 149.447 4284.85 154.425 4282.95 159.021 4282.19 164 4282.19 164 4281.81 163.617 4281.43 163.234 4280.67 162.085 4279.53 160.553 4278.77 159.404 4278.01 158.638 4278.01 157.872 4278.01 156.723 4279.53 153.277 4280.67 149.447 4281.43 146 4281.81 145.234 4282.19 144.468 4281.05 143.702ZM4282.19 142.936C4282.95 143.702 4283.33 144.468 4284.09 145.234 4285.99 147.149 4287.89 147.149 4290.16 145.234 4290.92 145.234 4291.3 144.851 4291.68 144.468 4293.96 142.17 4293.96 139.872 4291.68 137.191 4290.92 136.425 4290.54 136.042 4289.4 137.191 4287.51 138.34 4285.99 139.872 4284.09 141.404 4283.71 141.787 4282.95 142.553 4282.19 142.936Z" fill="#C00000" fill-rule="evenodd"/><path d="M3986 222.35C3986.76 218.087 3987.53 214.212 3987.91 209.95 3988.29 209.95 3988.29 209.95 3988.67 209.95 3988.67 210.337 3988.67 210.725 3988.67 211.112 3989.05 212.662 3989.43 213.437 3990.96 213.825 3993.63 214.6 3996.3 214.987 3999.36 215.375 3998.97 214.987 3998.97 214.6 3998.59 214.212 3996.68 211.112 3994.78 208.4 3992.87 205.3 3992.87 205.3 3992.49 204.912 3992.49 204.525 3991.34 203.362 3990.58 203.75 3989.82 204.912 3989.82 205.687 3989.43 206.075 3989.05 207.237 3988.67 205.3 3989.82 197.55 3990.58 196 3990.96 196 3990.96 196.387 3990.96 196.387 3990.96 199.1 3992.11 201.425 3993.25 203.362 3994.4 205.687 3995.92 207.625 3997.07 209.562 3997.83 209.562 3998.21 209.175 3998.59 209.175 4003.17 206.462 4007.75 203.75 4012.33 201.037 4013.09 200.65 4013.86 199.875 4014.62 199.1 4015 200.65 4014.24 201.812 4014.24 202.975 4013.86 204.525 4013.86 206.075 4013.47 207.625 4013.09 208.787 4013.09 210.337 4012.71 211.5 4012.33 211.5 4012.33 211.5 4012.33 211.5 4011.95 210.725 4011.95 209.562 4011.95 208.4 4011.18 208.4 4010.8 208.787 4010.42 208.787 4006.99 210.725 4003.93 212.662 4000.88 214.6 4000.88 215.375 4001.26 215.762 4002.03 215.762 4004.32 216.537 4006.61 216.925 4008.89 217.312 4010.04 217.312 4010.42 216.925 4011.18 215.762 4011.18 215.375 4011.57 214.987 4011.95 214.6 4011.57 218.475 4010.8 222.737 4010.04 227 4010.04 227 4010.04 227 4009.66 227 4009.66 226.612 4009.66 226.225 4009.66 225.837 4009.28 223.9 4008.89 223.512 4006.99 223.125 4001.26 221.962 3995.92 220.8 3990.2 220.025 3988.29 219.637 3987.91 220.025 3987.15 221.575 3986.76 221.962 3986.76 222.35 3986.38 222.35 3986.38 222.35 3986.38 222.35 3986 222.35Z" fill="#C00000" fill-rule="evenodd"/><path d="M4261.8 111.46C4261.41 113.023 4255.95 121.23 4254.39 122.402 4254.78 121.23 4254.78 120.448 4255.17 120.057 4255.95 117.322 4255.17 114.977 4252.44 113.414 4252.44 113.414 4252.05 113.805 4252.05 114.195 4250.49 116.54 4248.93 118.494 4247.37 120.839 4246.59 122.011 4246.59 122.793 4247.76 123.575 4250.88 126.701 4254.39 128.264 4259.07 125.919 4259.85 125.529 4259.85 125.529 4261.02 125.529 4260.24 126.701 4257.51 129.828 4255.56 131 4252.05 129.046 4238.78 118.885 4238 117.322 4238.78 117.713 4239.17 117.713 4239.56 118.103 4241.12 118.494 4241.9 118.103 4242.68 116.931 4246.2 111.851 4249.71 106.77 4253.22 101.69 4254.39 100.126 4254 99.3448 4253.22 98.1723 4252.83 97.7815 4252.83 97.3907 4252.44 96.9999 4253.61 97.3907 4267.66 107.552 4270 109.896 4268.83 111.851 4266.49 114.977 4265.32 115.759 4265.32 115.368 4265.32 114.977 4265.32 114.977 4266.88 111.069 4266.1 108.724 4263.37 106.379 4262.59 105.598 4261.8 104.816 4260.63 104.425 4259.85 103.644 4259.07 104.034 4258.68 104.816 4257.12 106.77 4255.56 108.724 4254 111.069 4254 111.46 4253.61 111.851 4253.61 112.241 4254.78 113.414 4255.95 114.195 4257.9 113.805 4259.07 113.414 4260.63 112.241 4261.8 111.46Z" fill="#C00000" fill-rule="evenodd"/><path d="M4004.63 251.647C4002.73 252.412 4000.83 253.176 4000.07 255.088 3999.69 256.235 3999.69 257.382 4000.45 258.912 4001.21 258.529 4001.97 258.529 4002.73 258.529 4004.63 258.147 4006.54 257.765 4008.82 257.765 4009.96 257.382 4010.34 257 4010.72 255.471 4010.72 250.882 4008.44 247.059 4004.25 245.529 4003.87 245.147 4003.11 245.147 4002.73 244 4005.39 244 4007.68 244.382 4009.96 244.382 4010.72 245.912 4013 264.647 4012.62 266.559 4012.24 265.794 4012.24 265.412 4011.86 265.029 4011.48 263.882 4010.72 263.5 4009.58 263.5 4003.49 264.265 3997.79 265.029 3992.08 266.176 3990.56 266.176 3989.8 266.941 3989.42 268.853 3989.42 269.235 3989.42 269.617 3989.42 270 3988.66 268.853 3986 250.5 3986.38 248.206 3988.66 247.824 3990.56 247.441 3992.85 247.441 3992.85 247.441 3993.23 247.441 3993.23 247.824 3992.85 247.824 3992.85 248.206 3992.47 248.206 3989.04 249.353 3987.9 252.029 3988.28 255.471 3988.28 256.235 3988.28 257.382 3988.66 258.529 3988.66 260.059 3989.04 260.441 3990.94 260.059 3993.61 259.676 3995.89 259.294 3998.55 258.912 3998.93 257 3998.55 255.471 3997.03 254.706 3995.89 253.941 3994.37 253.559 3992.85 253.176 3992.85 252.794 3993.23 252.794 3993.23 252.412 3997.03 252.029 4000.83 251.647 4004.63 250.882 4004.63 251.265 4004.63 251.265 4004.63 251.647Z" fill="#C00000" fill-rule="evenodd"/><path d="M4130.46 391.5C4129.7 390.729 4128.56 389.571 4127.8 388.414 4126.66 386.486 4126.28 384.557 4127.04 382.243 4127.8 380.314 4129.32 379.157 4131.22 378.386 4133.88 378 4136.54 378 4138.82 379.157 4140.34 379.929 4141.48 381.086 4142.24 382.629 4143 384.943 4142.24 387.257 4139.96 388.414 4138.82 388.8 4138.06 389.186 4136.92 389.571 4137.3 389.957 4137.68 390.343 4138.06 390.729 4139.2 392.271 4140.34 393.429 4140.72 394.971 4142.24 399.214 4139.96 403.457 4135.4 404.614 4132.74 405 4130.08 404.614 4127.42 403.071 4125.14 401.914 4124 399.986 4124.38 397.671 4124.38 394.971 4125.9 393.429 4128.18 392.657 4128.94 392.271 4129.7 391.886 4130.46 391.5ZM4131.6 392.657C4128.94 394.971 4127.8 398.829 4129.32 401.529 4129.7 403.071 4130.84 403.843 4132.36 403.843 4133.88 403.843 4134.64 402.686 4135.4 401.529 4136.54 398.443 4135.02 394.971 4131.6 392.657ZM4135.78 388.414C4138.06 386.871 4138.82 383.4 4137.68 381.086 4137.3 379.543 4136.16 379.157 4134.64 379.157 4133.5 379.157 4132.74 379.929 4131.98 381.086 4131.6 382.243 4131.6 383.786 4132.36 384.943 4133.12 386.486 4134.26 387.643 4135.78 388.414Z" fill="#C00000" fill-rule="evenodd"/><path d="M4003.05 311C4002.68 310.619 4002.3 310.238 4002.3 309.857 4000.78 306.429 3999.65 303 3998.14 299.952 3997.38 298.048 3997 295.762 3997 293.857 3997 291.191 3997.76 289.286 4000.03 288.143 4002.3 287 4004.19 287.381 4006.46 288.524 4007.59 289.286 4008.73 290.81 4009.49 291.952 4010.24 293.476 4010.62 295.381 4011.38 296.905 4012.14 296.524 4012.51 296.524 4012.89 296.524 4014.41 295.762 4016.3 295 4017.81 294.238 4020.08 293.095 4020.46 292.714 4020.08 290.429 4020.08 290.048 4020.08 289.667 4020.08 289.286 4021.22 290.429 4021.22 291.952 4021.97 293.095 4022.35 294.619 4023.11 295.762 4023.49 297.286 4023.86 298.429 4025 299.572 4024.62 301.476 4024.24 300.714 4023.86 300.333 4023.49 299.952 4022.73 299.191 4021.97 298.81 4021.22 299.191 4020.46 299.572 4019.7 299.952 4018.95 300.333 4014.41 302.238 4009.86 304.143 4005.32 306.048 4003.05 307.191 4003.05 307.572 4003.05 310.238 4003.05 310.619 4003.05 310.619 4003.05 311ZM4010.62 297.286C4009.86 296.524 4009.86 295.381 4009.11 294.619 4007.97 293.095 4006.46 292.333 4004.95 293.095 4003.43 293.476 4001.92 294.238 4000.78 295 3998.89 296.143 3998.51 298.429 3999.65 300.333 4000.41 301.476 4000.78 301.857 4001.92 301.476 4004.57 299.952 4007.59 298.81 4010.62 297.286Z" fill="#C00000" fill-rule="evenodd"/><path d="M4013 143.326C4013.76 142.568 4014.9 141.432 4015.28 140.295 4016.79 138.021 4018.69 137.263 4021.34 137.642 4025.9 137.642 4030.83 137.642 4035.38 137.642 4036.14 137.642 4036.52 137.642 4037.28 137.642 4036.9 137.263 4036.9 136.884 4036.52 136.505 4034.24 134.611 4031.97 132.716 4029.69 130.821 4027.41 128.547 4027.03 128.547 4024.38 130.063 4024.38 130.442 4024.38 130.063 4024 130.063 4024.38 128.926 4027.41 125.137 4028.93 124 4028.93 124.758 4028.93 124.758 4028.93 125.137 4028.17 126.653 4028.55 127.79 4029.69 128.926 4033.48 131.958 4037.28 135.368 4041.07 138.4 4042.59 139.916 4044.1 141.432 4046 142.947 4045.24 143.326 4044.86 143.705 4044.48 143.705 4043.72 143.705 4042.97 143.705 4042.21 143.705 4035.76 143.705 4028.93 143.705 4022.48 143.326 4021.72 143.326 4021.34 143.326 4020.21 143.326 4020.59 144.084 4020.97 144.463 4021.34 144.842 4024.38 147.495 4027.79 150.147 4030.83 153.179 4032.34 154.695 4033.86 155.452 4036.14 153.558 4036.14 153.179 4036.14 153.179 4036.14 153.179 4036.14 154.316 4032.72 158.863 4031.21 160 4031.21 159.242 4031.21 158.863 4031.59 158.484 4032.34 156.968 4031.97 156.21 4030.83 155.074 4028.55 153.179 4026.28 151.284 4024.38 149.389 4022.48 147.495 4020.59 145.979 4018.69 144.463 4017.55 143.326 4016.79 143.326 4015.66 143.326 4014.9 143.705 4014.14 143.705 4013.38 143.705 4013 143.705 4013 143.705 4013 143.326Z" fill="#C00000" fill-rule="evenodd"/><path d="M4221.16 376.029C4222.74 376.414 4223.92 376.8 4225.1 377.186 4228.25 377.957 4230.21 380.271 4230.61 383.357 4231 385.671 4230.21 387.214 4228.64 388.757 4226.67 391.071 4223.52 392.614 4220.38 392.614 4218.02 393 4216.44 391.843 4215.26 389.914 4213.69 387.986 4213.69 385.671 4215.26 383.743 4215.66 382.971 4216.44 382.2 4217.23 381.043 4216.05 381.043 4214.87 380.657 4213.69 380.271 4208.18 378.343 4207 372.557 4211.33 369.086 4213.29 367.543 4215.66 366.386 4218.02 366 4220.38 366 4222.34 366.772 4223.52 368.7 4224.7 370.629 4223.92 372.557 4222.74 374.1 4222.34 374.871 4221.95 375.257 4221.16 376.029ZM4218.41 381.429C4218.41 382.586 4218.02 383.743 4218.02 384.514 4218.41 386.829 4219.59 388.757 4221.56 390.3 4222.74 391.071 4223.92 391.457 4225.1 390.686 4226.67 389.914 4227.07 388.371 4226.67 387.214 4226.28 384.9 4225.1 383.357 4223.13 382.586 4221.56 381.814 4220.38 381.814 4218.41 381.429ZM4219.98 376.029C4220.77 372.943 4219.98 370.629 4218.02 368.7 4217.23 367.929 4216.44 367.929 4215.66 367.929 4214.08 367.929 4213.29 368.7 4212.51 369.857 4212.11 371.014 4212.51 372.171 4213.29 373.329 4215.26 375.257 4217.23 375.643 4219.98 376.029Z" fill="#C00000" fill-rule="evenodd"/><path d="M4061.63 93.9998C4062.77 94.7498 4066.17 99.2499 4066.55 101.125 4066.17 101.5 4065.79 100.75 4065.04 100.75 4063.15 99.6249 4061.26 99.2499 4059.37 99.2499 4054.83 99.2499 4051.8 102.625 4052.94 107.125 4054.45 112 4057.48 116.5 4061.63 119.5 4064.66 121.75 4067.68 121.375 4070.33 118.75 4071.46 117.625 4071.84 116.5 4070.71 115 4069.95 114.25 4069.2 113.125 4068.44 112 4067.3 110.5 4066.93 110.5 4065.04 111.25 4064.66 111.625 4064.28 111.625 4063.9 111.625 4064.66 110.5 4065.79 109.75 4066.93 109 4068.06 108.25 4069.2 107.125 4070.33 106.375 4071.46 105.625 4072.22 104.875 4073.35 104.125 4073.73 104.125 4073.73 104.125 4073.73 104.5 4073.73 104.5 4073.35 104.875 4073.35 104.875 4072.22 106.75 4071.84 107.5 4073.35 109 4074.11 110.5 4075.24 111.625 4076 112.75 4076 113.125 4076 113.125 4076 113.5 4072.98 118 4069.2 121.75 4063.52 123.25 4061.26 124 4058.99 123.625 4056.72 122.5 4049.16 118.75 4045 107.125 4054.07 99.6249 4055.21 98.8749 4057.1 98.4999 4058.61 97.7499 4058.99 97.3749 4059.37 97.3749 4059.74 97.3749 4061.63 96.6249 4061.63 96.6249 4061.63 94.7498 4061.63 94.7498 4061.63 94.7498 4061.63 94.3748 4061.63 94.3748 4061.63 94.3748 4061.63 93.9998Z" fill="#C00000" fill-rule="evenodd"/><path d="M4159.31 92.6144C4157.77 93.0002 4157.77 92.2287 4157.38 91.4573 4153.54 87.2144 4150.08 82.5858 4146.62 77.9572 4145.08 76.4144 4143.54 74.4858 4142 72.5572 4142 73.3286 4141.62 73.7143 4141.62 74.1001 4141.62 78.7287 4141.62 82.9715 4141.62 87.6001 4141.62 90.3001 4142 90.6859 4144.69 91.4573 4144.69 91.843 4145.08 91.843 4145.08 92.2287 4143.92 92.6144 4138.92 92.6144 4137 92.2287 4137.38 91.843 4137.77 91.4573 4138.15 91.4573 4139.69 91.0716 4140.46 90.3001 4140.46 88.3716 4140.46 82.9715 4140.46 77.1858 4140.46 71.4 4140.46 70.2429 4139.69 69.4715 4139.31 69.0857 4138.54 68.3143 4137.77 67.5429 4137 66.7714 4138.54 66.3857 4139.69 66.7714 4140.85 66.3857 4143.92 66 4145.46 67.1572 4147.38 69.4715 4150.08 73.3286 4153.15 77.1858 4156.23 81.0429 4156.62 81.4287 4157 81.8144 4157.77 82.2001 4157.77 81.8144 4157.77 81.0429 4157.77 80.6572 4157.77 77.5715 4157.77 74.8715 4157.77 71.7858 4157.77 69.4715 4157.38 67.5429 4154.69 67.1572 4154.69 67.1572 4154.31 67.1572 4154.31 67.1572 4155.46 66.3857 4160.46 66.3857 4162 66.7714 4161.62 67.1572 4161.62 67.1572 4161.23 67.5429 4159.69 67.9286 4158.92 69.0857 4159.31 70.6286 4159.31 72.5572 4159.31 74.4858 4159.31 76.0286 4159.31 81.0429 4159.31 85.6715 4159.31 90.6859 4159.31 91.4573 4159.31 91.843 4159.31 92.6144Z" fill="#C00000" fill-rule="evenodd"/><path d="M4171.42 405C4176.36 403.099 4179.02 398.915 4179.78 393.592 4178.64 393.972 4177.88 394.352 4176.74 394.732 4173.32 395.493 4170.66 393.972 4169.14 390.549 4168 387.887 4168.38 385.225 4169.14 382.944 4170.66 379.902 4172.94 378.38 4175.98 378.38 4179.02 378 4181.68 379.141 4183.58 382.183 4187 387.887 4185.86 395.873 4180.92 400.437 4178.64 402.718 4174.46 404.62 4171.42 405ZM4179.78 390.169C4179.78 390.169 4179.78 390.169 4180.16 390.169 4179.4 387.507 4179.02 385.225 4178.64 382.563 4178.26 381.803 4177.88 381.042 4177.5 380.282 4177.12 379.521 4176.36 379.141 4175.22 379.141 4174.46 379.521 4173.7 379.902 4173.7 381.042 4173.7 381.423 4173.32 381.803 4173.32 381.803 4173.7 384.845 4174.08 387.507 4174.84 390.169 4175.22 390.93 4175.6 391.31 4175.98 392.07 4176.74 392.831 4177.5 392.831 4179.02 392.831 4180.16 392.451 4179.78 391.31 4179.78 390.549 4179.78 390.549 4179.78 390.169 4179.78 390.169Z" fill="#C00000" fill-rule="evenodd"/><path d="M4109.06 73.6365C4110.21 72.5067 4114.79 71.3768 4116.71 71.0002 4116.32 71.3768 4116.32 71.7534 4115.94 72.13 4114.79 72.8833 4114.41 74.0131 4114.79 75.5196 4115.94 78.9092 4117.09 82.6754 4117.85 86.065 4118.24 87.9481 4118.62 89.8313 4118.62 91.7144 4119 93.9741 4118.24 95.4806 4116.71 96.6104 4113.65 98.8702 4109.82 100 4106 99.6234 4103.71 99.2468 4102.18 98.1169 4101.03 95.8572 4100.65 95.104 4100.26 94.3507 4100.26 93.5975 4099.12 89.4546 4097.97 85.3118 4096.82 81.169 4096.82 81.169 4096.44 80.7923 4096.44 80.4157 4096.06 79.2858 4095.29 78.5326 4093.76 78.5326 4093.38 78.5326 4093.38 78.5326 4093 78.156 4096.06 76.6495 4099.88 75.8962 4103.32 74.7664 4103.71 74.7664 4104.09 74.7664 4104.47 74.7664 4104.47 74.7664 4104.47 74.7664 4104.47 75.143 4104.09 75.143 4103.71 75.5196 4103.32 75.5196 4102.18 76.2729 4101.79 77.0261 4102.18 78.5326 4103.32 83.4287 4104.85 88.3248 4106 93.2208 4106.38 93.5975 4106.38 93.5975 4106.38 93.9741 4107.53 96.6104 4109.44 97.7403 4112.12 97.3637 4115.56 96.6104 4117.47 94.7273 4117.47 91.7144 4117.47 90.2079 4117.09 89.078 4117.09 87.9481 4115.94 84.1819 4114.79 80.4157 4113.65 76.6495 4112.88 74.0131 4112.5 73.6365 4109.82 73.6365 4109.44 73.6365 4109.44 73.6365 4109.06 73.6365Z" fill="#C00000" fill-rule="evenodd"/><path d="M4288 178.381C4290.66 177.238 4293.32 176.095 4295.59 174.952 4296.35 175.714 4295.97 176.095 4295.59 176.476 4294.46 177.619 4293.32 178.762 4292.56 179.905 4291.04 182.571 4291.42 184.857 4292.94 187.524 4294.08 189.048 4295.22 189.428 4297.11 189.048 4298.63 188.667 4299.77 187.524 4300.15 186 4300.15 185.238 4300.15 184.095 4300.15 183.333 4300.53 180.667 4300.53 178 4301.29 175.333 4302.05 172.286 4304.33 170.762 4307.37 170.381 4309.65 170 4311.54 171.143 4313.06 172.667 4314.58 174.572 4315.34 176.857 4315.72 179.143 4315.72 179.905 4315.72 180.286 4315.72 180.667 4315.72 181.429 4316.1 182.19 4316.86 182.19 4317.24 182.19 4317.62 182.571 4318 182.952 4316.48 184.095 4311.92 186 4310.4 186 4310.78 185.238 4311.16 184.857 4311.54 184.476 4312.68 182.952 4313.82 181.81 4314.2 179.905 4314.58 178 4314.2 176.095 4312.68 174.572 4311.16 172.667 4308.13 173.048 4306.99 175.333 4306.61 176.095 4306.61 177.238 4306.61 178 4306.23 180.286 4306.61 182.571 4306.23 184.857 4305.85 186 4305.85 187.524 4305.09 189.048 4302.81 192.857 4297.11 194 4293.7 190.19 4292.18 187.905 4291.04 185.619 4290.66 182.952 4289.9 180.286 4289.9 180.286 4288 178.381Z" fill="#C00000" fill-rule="evenodd"/><path d="M4312.94 298C4313.32 297.625 4313.32 297.25 4313.32 296.875 4314.1 294.625 4313.71 294.25 4310.99 294.25 4309.04 294.625 4307.48 294.625 4305.53 295 4304.36 295 4303.58 295 4302.42 295 4302.03 295.375 4301.64 295.375 4300.86 295.375 4301.64 296.5 4302.42 297.625 4303.19 298.375 4303.97 299.875 4305.14 301 4306.31 302.5 4306.7 302.875 4307.09 303.625 4307.48 304 4308.65 304.75 4309.43 304.75 4310.21 303.625 4310.6 303.25 4310.99 302.875 4311.38 302.125 4311.38 303.625 4309.82 308.5 4308.65 310 4308.65 309.625 4308.26 309.625 4308.26 309.625 4308.26 308.125 4307.48 307 4306.7 305.5 4304.36 302.875 4302.42 299.875 4300.08 296.875 4299.69 296.125 4299.3 295.75 4298.13 295.375 4296.57 294.625 4294.62 293.875 4293.06 293.125 4290.73 292.375 4290.34 292.375 4288.78 294.625 4288.78 294.625 4288.39 294.625 4288.39 295 4288.39 294.625 4288 294.625 4288 294.25 4289.56 290.5 4291.12 287.125 4292.68 283.375 4292.68 283.375 4292.68 283 4293.06 283 4293.06 283.375 4293.06 283.75 4293.06 284.125 4292.68 286 4293.06 286.75 4295.01 287.5 4296.57 288.25 4298.13 289 4299.69 289.375 4300.08 289.75 4300.86 289.75 4301.25 289.75 4305.53 289.375 4309.82 288.625 4314.1 288.25 4315.27 287.875 4316.83 287.5 4317.61 286 4318 286.375 4318 286.75 4318 286.75 4316.83 290.5 4315.27 293.875 4313.71 297.625 4313.71 297.625 4313.71 297.625 4312.94 298Z" fill="#C00000" fill-rule="evenodd"/><path d="M4300.91 243.77C4300.91 244.147 4300.91 244.525 4300.91 244.902 4301.29 246.41 4302.06 247.164 4303.59 247.541 4306.65 247.541 4310.09 247.918 4313.15 248.295 4316.21 248.295 4319.26 248.672 4322.32 248.672 4322.71 248.672 4323.09 248.672 4323.47 248.672 4323.85 247.541 4323.47 246.41 4323.09 245.279 4322.71 243.77 4322.32 243.016 4321.18 242.262 4320.03 241.508 4318.88 241.131 4318.12 240.377 4320.41 240 4322.71 240.377 4325 240.754 4324.62 247.918 4323.85 255.459 4323.47 263 4321.18 263 4318.88 263 4316.59 262.623 4316.59 262.246 4316.59 261.869 4316.97 261.492 4316.97 261.492 4317.35 261.492 4317.74 261.492 4321.18 260.738 4323.09 258.852 4323.09 255.082 4322.71 254.705 4322.32 254.705 4321.94 254.705 4316.59 254.328 4310.85 253.951 4305.5 253.574 4304.74 253.574 4303.97 253.197 4303.59 253.197 4301.68 253.197 4300.53 253.574 4300.15 255.459 4300.15 255.836 4300.15 256.213 4299.76 256.967 4299 255.459 4299.76 254.328 4299.76 253.574 4299.76 252.443 4299.76 251.311 4299.76 250.18 4299.76 249.049 4299.76 247.918 4300.15 246.787 4300.15 245.656 4299.76 244.525 4300.53 243.393 4300.53 243.393 4300.53 243.77 4300.91 243.77Z" fill="#C00000" fill-rule="evenodd"/><path d="M4214.36 106C4213.97 104.831 4213.97 104.441 4213.97 103.662 4213.97 96.2596 4213.97 88.8571 4213.97 81.4545 4213.97 79.5065 4213.97 77.5584 4212 76.3896 4213.57 76 4222.23 79.8961 4223.41 81.4545 4223.02 81.0649 4222.62 81.0649 4221.84 81.0649 4220.66 80.6753 4220.26 81.0649 4219.87 82.2337 4219.87 82.6233 4219.87 83.0129 4219.87 83.4025 4219.48 88.0779 4219.48 92.7532 4219.48 97.4285 4219.48 97.4285 4219.48 97.8181 4219.87 98.2077 4219.87 98.2077 4220.26 98.2077 4220.26 98.2077 4223.41 94.7012 4226.56 91.5843 4229.71 88.0779 4229.71 88.0779 4229.71 88.0779 4229.71 88.0779 4231.28 86.1298 4231.28 85.3506 4229.31 84.1818 4228.92 83.7922 4228.92 83.7922 4228.92 83.4025 4231.28 83.7922 4233.64 84.961 4236 86.1298 4235.61 86.5194 4235.61 86.5194 4235.21 86.5194 4233.64 86.5194 4232.46 87.2986 4231.28 88.4675 4226.16 93.922 4221.05 99.3765 4215.93 104.441 4215.54 104.831 4215.15 105.221 4214.36 106Z" fill="#C00000" fill-rule="evenodd"/><path d="M3998 174.59C3998 172.623 4002.18 163.574 4003.7 162 4003.32 162.393 4003.32 162.787 4003.32 163.18 4002.94 165.541 4003.32 166.328 4005.23 167.115 4010.17 169.869 4015.11 172.623 4020.06 174.984 4021.96 176.164 4022.72 175.77 4023.86 174.197 4024.24 173.803 4024.62 173.41 4025 173.016 4024.62 174.59 4020.82 184.033 4019.3 186 4019.3 185.213 4019.3 184.82 4019.3 184.426 4019.68 182.459 4019.3 181.672 4017.77 180.492 4012.83 178.131 4007.89 175.377 4002.94 173.016 4000.66 171.836 4000.28 171.836 3998.38 173.803 3998.38 174.197 3998.38 174.197 3998 174.59Z" fill="#C00000" fill-rule="evenodd"/><path d="M4299.96 223C4299.17 219.222 4298.78 215.067 4298 210.911 4298 210.911 4298 210.533 4298.39 210.156 4298.78 210.911 4298.78 211.289 4299.17 211.667 4299.96 213.178 4300.35 213.556 4302.3 213.178 4307 212.422 4311.7 211.667 4316.39 210.911 4317.57 210.911 4318.35 210.533 4319.52 210.533 4321.48 210.156 4321.87 209.4 4322.26 207.889 4322.26 207.511 4322.26 207.133 4322.26 206 4322.65 206.755 4323.04 207.133 4323.04 207.133 4323.44 211.289 4324.22 215.067 4325 219.222 4324.61 219.222 4324.61 219.222 4324.22 219.222 4324.22 219.222 4323.83 218.844 4323.83 218.467 4323.04 216.578 4322.26 216.2 4320.3 216.2 4314.83 217.333 4308.96 218.089 4303.48 219.222 4301.52 219.222 4300.74 219.978 4300.74 221.867 4300.74 222.245 4300.35 222.622 4300.35 223 4300.35 223 4299.96 223 4299.96 223Z" fill="#C00000" fill-rule="evenodd"/><path d="M4177.38 92.7713C4177.76 92.7713 4178.14 92.7713 4178.52 92.7713 4180.05 92.3999 4180.81 92.0285 4180.81 90.1713 4181.19 88.3142 4181.57 86.4571 4181.95 84.2285 4182.33 80.8857 4182.71 77.5429 4183.1 74.2001 4183.1 73.8286 4183.48 73.4572 4183.48 72.7144 4183.48 70.8572 4183.1 70.4858 4181.19 69.743 4180.81 69.3715 4180.81 69.3715 4180.43 69.0001 4184.62 69.3715 4188.81 69.743 4193 70.4858 4193 70.8572 4193 70.8572 4193 70.8572 4192.62 70.8572 4192.24 71.2287 4191.86 71.2287 4189.95 71.2287 4189.19 71.6001 4189.19 73.8286 4188.43 77.9143 4187.67 82.3714 4187.29 86.4571 4186.9 87.9428 4186.9 89.4285 4186.52 90.5428 4186.52 92.7713 4186.9 93.5142 4188.81 94.257 4189.19 94.257 4189.19 94.6284 4189.57 94.6284 4189.57 94.6284 4189.57 94.6284 4189.57 94.9999 4185.38 94.6284 4181.19 94.257 4177 93.5142 4177.38 93.1427 4177.38 93.1427 4177.38 92.7713Z" fill="#C00000" fill-rule="evenodd"/><path d="M4080.38 387.791C4080.77 387.791 4081.54 387.791 4081.92 388.179 4083.85 388.567 4085 388.179 4086.15 386.239 4088.08 381.582 4090.38 376.925 4092.31 372.657 4092.69 372.269 4092.69 371.881 4092.69 371.493 4093.08 369.94 4092.69 369.164 4091.15 368.776 4090.77 368.776 4090 368.776 4088.85 368.388 4090.38 368 4096.92 368 4100 368.388 4100 368.776 4100 369.164 4099.62 369.552 4096.92 375.761 4094.23 381.97 4091.15 388.179 4090 390.895 4090 391.672 4092.69 393.224 4092.69 393.224 4093.08 393.612 4093.08 393.612 4093.08 393.612 4093.08 394 4093.08 394 4093.08 394 4092.69 394 4092.69 394 4088.85 392.06 4085 390.507 4080.77 388.567 4080.38 388.567 4080.38 388.179 4080 388.179 4080.38 387.791 4080.38 387.791 4080.38 387.791Z" fill="#C00000" fill-rule="evenodd"/><path d="M4280 236.5C4280 304.86 4224.24 361 4155.5 361 4087.14 361 4031 305.624 4031 236.5 4031 167.758 4086.76 112 4155.5 112 4224.24 112 4280 168.14 4280 236.5ZM4145.57 252.54C4145.57 253.304 4145.57 253.686 4145.57 254.449 4145.57 259.032 4145.57 263.233 4145.57 267.816 4145.57 268.198 4145.57 268.58 4145.57 268.962 4145.57 271.253 4144.42 273.163 4142.52 274.308 4141.75 274.69 4140.99 275.454 4139.84 275.836 4132.97 280.419 4127.24 286.529 4122.27 293.403 4116.93 301.423 4113.49 310.589 4111.2 319.755 4110.82 321.664 4110.44 323.192 4110.44 325.101 4110.05 330.066 4113.11 333.885 4118.07 334.649 4122.27 335.413 4127.24 333.885 4128.77 328.156 4128.77 327.775 4129.15 327.011 4129.15 326.629 4130.29 323.955 4131.06 320.9 4131.82 318.227 4134.11 311.735 4137.17 306.006 4141.37 300.278 4143.66 297.222 4146.72 294.549 4150.15 292.64 4153.59 290.73 4157.03 290.73 4160.46 292.64 4161.23 293.021 4162.37 293.403 4163.14 294.167 4166.58 296.459 4169.25 299.514 4171.54 302.951 4175.36 309.061 4178.03 315.554 4179.94 322.046 4180.71 324.337 4181.47 327.011 4182.23 329.302 4183.38 331.975 4184.91 333.503 4187.58 334.267 4193.31 336.558 4201.33 332.357 4200.18 323.955 4199.8 321.282 4199.04 318.991 4198.66 316.699 4196.36 308.679 4193.69 301.423 4189.11 294.549 4183.76 286.147 4176.89 279.655 4168.48 274.308 4166.19 273.163 4165.05 271.253 4165.05 268.58 4165.05 263.615 4165.05 259.032 4165.05 254.067 4165.05 253.686 4165.05 253.304 4165.43 252.54 4166.19 252.54 4166.58 252.922 4167.34 252.922 4174.6 255.595 4180.71 259.414 4186.05 264.761 4193.31 271.253 4198.66 278.891 4204 287.293 4207.44 293.403 4210.88 299.896 4213.93 306.388 4214.69 308.298 4215.84 309.825 4217.75 311.353 4219.66 312.88 4222.33 314.026 4225.01 313.262 4228.83 312.117 4231.12 309.825 4231.88 306.006 4232.64 302.951 4232.26 300.278 4231.12 297.604 4229.59 294.167 4228.06 291.112 4226.53 287.675 4221.19 275.836 4214.31 264.761 4205.15 255.213 4195.98 246.048 4185.67 239.173 4173.45 234.972 4170.78 234.209 4168.1 233.445 4165.05 232.681 4165.05 231.153 4165.05 229.626 4165.05 228.098 4164.67 225.807 4164.28 223.133 4162.76 221.224 4158.94 215.495 4151.68 215.495 4147.86 221.224 4146.33 223.515 4145.95 226.189 4145.95 228.48 4145.57 230.008 4145.57 231.153 4145.57 232.681 4145.19 233.063 4144.81 233.063 4144.04 233.063 4131.82 236.118 4120.75 241.465 4111.2 249.867 4103.94 256.359 4097.83 263.997 4092.49 272.399 4087.52 280.037 4083.7 288.439 4079.88 296.459 4079.12 299.132 4078.36 301.805 4078.74 304.479 4079.12 308.679 4080.65 311.353 4084.47 312.88 4088.29 314.408 4091.72 312.88 4094.01 310.207 4095.16 309.061 4095.92 307.534 4096.69 306.388 4100.12 300.278 4103.18 293.785 4106.62 288.057 4111.58 279.273 4117.69 271.253 4124.95 264.379 4130.29 259.414 4136.41 255.595 4143.28 253.304 4144.04 252.922 4144.81 252.54 4145.57 252.54ZM4127.62 154.773C4127.24 155.155 4126.48 155.155 4126.09 155.537 4122.66 156.683 4119.22 157.446 4115.78 158.592 4102.42 163.175 4089.81 168.903 4077.97 176.541 4073.01 179.979 4068.04 183.798 4063.46 188.38 4061.93 189.908 4060.41 191.436 4059.64 193.727 4058.12 197.928 4060.02 202.511 4064.23 204.038 4066.9 205.184 4069.57 205.184 4072.25 204.42 4074.54 203.656 4076.06 202.511 4077.97 201.365 4082.18 198.31 4086.76 194.873 4091.34 192.199 4102.03 184.943 4113.49 179.215 4126.09 175.014 4126.48 175.014 4127.24 174.632 4127.62 174.632 4127.62 181.888 4127.62 189.144 4127.62 196.018 4127.24 196.4 4126.86 196.4 4126.48 196.782 4101.65 206.33 4081.03 221.988 4065.37 243.756 4061.93 248.339 4058.88 253.304 4055.82 258.268 4054.68 259.796 4053.91 261.324 4053.91 262.851 4053.91 267.816 4056.97 272.017 4061.55 273.163 4065.37 274.308 4068.43 273.163 4070.72 269.725 4071.86 268.198 4073.01 266.288 4074.16 264.761 4079.5 257.123 4085.61 249.867 4092.1 242.992 4098.6 236.118 4105.47 230.008 4113.11 225.043 4121.51 219.696 4130.68 215.495 4140.22 212.822 4145.57 211.294 4147.1 208.621 4147.1 203.656 4147.1 184.179 4147.1 164.702 4147.1 145.607 4147.1 144.08 4147.1 142.934 4146.72 141.788 4146.72 140.261 4146.33 138.351 4145.19 136.824 4142.9 133.005 4137.93 131.477 4133.73 133.387 4130.68 135.296 4128.77 137.969 4128 141.406 4128 142.934 4128 144.462 4127.62 146.371 4127.62 149.045 4127.62 152.1 4127.62 154.773ZM4183 154.773C4183 154.009 4183 153.245 4183 152.482 4183 149.426 4183 146.371 4183 143.316 4182.62 141.025 4182.23 138.733 4180.71 136.824 4178.41 133.768 4175.36 132.241 4171.54 132.623 4167.72 133.387 4165.43 135.678 4164.28 139.115 4163.9 140.643 4163.52 142.552 4163.52 144.462 4163.52 164.321 4163.52 184.179 4163.52 204.42 4163.52 204.42 4163.52 204.802 4163.52 204.802 4163.52 207.857 4165.05 210.149 4167.72 211.294 4168.87 212.058 4170.39 212.44 4171.92 212.822 4178.8 215.114 4185.67 217.787 4191.78 221.224 4202.47 226.952 4211.64 234.59 4219.28 243.374 4226.92 251.394 4233.41 260.178 4239.52 269.344 4239.9 269.725 4240.28 270.489 4240.66 270.871 4242.19 272.781 4244.1 273.544 4246.39 273.544 4254.03 273.544 4259.38 265.525 4255.18 258.65 4252.89 254.831 4250.98 251.394 4248.3 247.575 4232.64 225.043 4212.02 207.857 4186.43 197.546 4185.29 197.164 4184.14 196.782 4183 196.018 4183 188.762 4183 181.888 4183 174.632 4183.38 174.632 4183.38 174.632 4183.38 174.632 4184.14 175.014 4184.52 175.014 4184.91 175.014 4198.66 179.597 4211.64 186.471 4223.48 194.873 4226.92 197.164 4230.35 199.837 4234.17 202.129 4236.85 204.42 4239.9 205.184 4243.34 204.802 4249.83 204.42 4253.27 198.31 4250.59 192.581 4249.45 190.672 4248.3 189.144 4247.16 187.999 4240.66 181.506 4233.03 176.541 4225.39 171.959 4214.31 165.848 4202.86 161.265 4190.64 157.446 4188.34 156.301 4185.67 155.537 4183 154.773Z" fill="#C00000" fill-rule="evenodd"/></g></svg>